<?xml version="1.0" encoding="utf-8"?>
<!-- Generator: Adobe Illustrator 24.3.0, SVG Export Plug-In . SVG Version: 6.00 Build 0)  -->
<svg version="1.1" id="Layer_1" xmlns="http://www.w3.org/2000/svg" xmlns:xlink="http://www.w3.org/1999/xlink" x="0px" y="0px"
	 viewBox="0 0 443.38 408.5" style="enable-background:new 0 0 443.38 408.5;" xml:space="preserve">
<style type="text/css">
	.st0{fill:#F9F8F2;}
	.st1{fill:#A5A5A5;}
</style>
<rect x="0" y="1.28" class="st0" width="443.38" height="407.22"/>
<path class="st1" d="M427.08,153.42l2.62-0.28v-14.07c7.95-1.93,13.67-8.44,13.67-16.03c0-7.58-5.72-14.1-13.67-16.03V92.95
	l-2.62-0.28c-6.3-0.68-11.05-5.25-11.05-10.64c0-5.38,4.75-9.96,11.05-10.64l2.63-0.28V57.04c7.95-1.93,13.67-8.44,13.67-16.03
	s-5.72-14.1-13.67-16.03V10.92l-2.63-0.28c-6.3-0.68-11.05-5.25-11.05-10.64h-5.88c0,5.38-4.75,9.96-11.05,10.64l-2.62,0.28v14.07
	c-4.51,1.09-8.29,3.66-10.73,7.06c-2.44-3.4-6.22-5.97-10.73-7.06V10.92l-2.63-0.28C366.1,9.96,361.35,5.38,361.35,0h-5.88
	c0,5.38-4.75,9.96-11.05,10.64l-2.62,0.28v14.07c-4.51,1.09-8.29,3.66-10.73,7.06c-2.44-3.4-6.22-5.97-10.73-7.06V10.92l-2.63-0.28
	c-6.3-0.68-11.05-5.25-11.05-10.64h-5.88c0,5.38-4.75,9.96-11.05,10.64l-2.62,0.28v14.07c-4.51,1.09-8.29,3.66-10.73,7.06
	c-2.44-3.4-6.22-5.97-10.73-7.06V10.92l-2.63-0.28c-6.3-0.68-11.05-5.25-11.05-10.64h-5.88c0,5.38-4.75,9.96-11.05,10.64l-2.62,0.28
	v14.07c-4.51,1.09-8.29,3.66-10.73,7.06c-2.44-3.4-6.22-5.97-10.73-7.06V10.92l-2.63-0.28c-6.3-0.68-11.05-5.25-11.05-10.64h-5.88
	c0,5.38-4.75,9.96-11.05,10.64l-2.62,0.28v14.07c-4.51,1.09-8.29,3.66-10.73,7.06c-2.44-3.4-6.22-5.97-10.73-7.06V10.92l-2.63-0.28
	C147.35,9.96,142.6,5.38,142.6,0h-5.88c0,5.38-4.75,9.96-11.05,10.64l-2.62,0.28v14.07c-4.51,1.09-8.29,3.66-10.73,7.06
	c-2.44-3.4-6.22-5.97-10.73-7.06V10.92l-2.63-0.28C92.66,9.96,87.91,5.38,87.91,0h-5.88c0,5.38-4.75,9.96-11.05,10.64l-2.62,0.28
	v14.07c-4.51,1.09-8.29,3.66-10.73,7.06c-2.44-3.4-6.22-5.97-10.73-7.06V10.92l-2.63-0.28C37.97,9.96,33.23,5.38,33.23,0h-5.88
	c0,5.38-4.75,9.96-11.05,10.64l-2.63,0.28v14.07C5.72,26.92,0,33.43,0,41.02s5.72,14.1,13.67,16.03v14.07l2.63,0.28
	c6.3,0.68,11.05,5.25,11.05,10.64c0,5.38-4.75,9.96-11.05,10.64l-2.62,0.28v14.07C5.72,108.95,0,115.46,0,123.05
	c0,7.58,5.72,14.1,13.67,16.03v14.07l2.62,0.28c6.3,0.68,11.05,5.25,11.05,10.64c0,5.38-4.75,9.96-11.05,10.64l-2.62,0.28v14.07
	C5.72,190.98,0,197.49,0,205.08s5.72,14.1,13.67,16.03v14.07l2.62,0.28c5.97,0.65,10.55,4.79,11,9.81c-0.46,5.02-5.03,9.17-11,9.81
	l-2.63,0.28v14.07C5.72,271.36,0,277.87,0,285.45s5.72,14.1,13.67,16.03v14.07l2.63,0.28c6.3,0.68,11.05,5.25,11.05,10.64
	c0,5.38-4.75,9.96-11.05,10.64l-2.63,0.28v14.07C5.72,353.39,0,359.9,0,367.48c0,7.58,5.72,14.1,13.67,16.03v14.07l2.63,0.28
	c6.3,0.68,11.05,5.25,11.05,10.64h5.88c0-5.38,4.75-9.96,11.05-10.64l2.63-0.28v-14.07c4.51-1.09,8.29-3.66,10.73-7.06
	c2.44,3.4,6.22,5.97,10.73,7.06v14.07l2.62,0.28c6.3,0.68,11.05,5.25,11.05,10.64h5.88c0-5.38,4.75-9.96,11.05-10.64l2.63-0.28
	v-14.07c4.51-1.09,8.29-3.66,10.73-7.06c2.44,3.4,6.22,5.97,10.73,7.06v14.07l2.62,0.28c6.3,0.68,11.05,5.25,11.05,10.64h5.88
	c0-5.38,4.75-9.96,11.05-10.64l2.63-0.28v-14.07c4.51-1.09,8.29-3.66,10.73-7.06c2.44,3.4,6.22,5.97,10.73,7.06v14.07l2.62,0.28
	c6.3,0.68,11.05,5.25,11.05,10.64h5.88c0-5.38,4.75-9.96,11.05-10.64l2.63-0.28v-14.07c4.51-1.09,8.29-3.66,10.73-7.06
	c2.44,3.4,6.22,5.97,10.73,7.06v14.07l2.62,0.28c6.3,0.68,11.05,5.25,11.05,10.64h5.88c0-5.38,4.75-9.96,11.05-10.64l2.63-0.28
	v-14.07c4.51-1.09,8.29-3.66,10.73-7.06c2.44,3.4,6.22,5.97,10.73,7.06v14.07l2.62,0.28c6.3,0.68,11.05,5.25,11.05,10.64h5.88
	c0-5.38,4.75-9.96,11.05-10.64l2.63-0.28v-14.07c4.51-1.09,8.29-3.66,10.73-7.06c2.44,3.4,6.22,5.97,10.73,7.06v14.07l2.62,0.28
	c6.3,0.68,11.05,5.25,11.05,10.64h5.88c0-5.38,4.75-9.96,11.05-10.64l2.63-0.28v-14.07c4.51-1.09,8.29-3.66,10.73-7.06
	c2.44,3.4,6.22,5.97,10.73,7.06v14.07l2.62,0.28c6.3,0.68,11.05,5.25,11.05,10.64h5.88c0-5.38,4.75-9.96,11.05-10.64l2.63-0.28
	v-14.07c7.95-1.93,13.67-8.44,13.67-16.03c0-7.58-5.72-14.1-13.67-16.03v-14.07l-2.63-0.28c-6.3-0.68-11.05-5.25-11.05-10.64
	c0-5.38,4.75-9.96,11.05-10.64l2.63-0.28v-14.07c7.95-1.93,13.67-8.44,13.67-16.03s-5.72-14.1-13.67-16.03v-14.07l-2.63-0.28
	c-5.97-0.64-10.54-4.79-11-9.81c0.46-5.02,5.03-9.17,11-9.81l2.62-0.28V221.1c7.95-1.93,13.67-8.44,13.67-16.03
	s-5.72-14.1-13.67-16.03v-14.07l-2.62-0.28c-6.3-0.68-11.05-5.25-11.05-10.64C416.03,158.68,420.78,154.1,427.08,153.42z
	 M385.75,114.08c-2.44-3.4-6.22-5.97-10.73-7.06V92.95l-2.62-0.28c-6.3-0.68-11.05-5.25-11.05-10.64c0-5.38,4.75-9.96,11.05-10.64
	l2.63-0.28V57.04c4.51-1.09,8.29-3.66,10.73-7.06c2.44,3.4,6.22,5.97,10.73,7.06v14.07l2.62,0.28c6.3,0.68,11.05,5.25,11.05,10.64
	c0,5.38-4.75,9.96-11.05,10.64l-2.62,0.28v14.07C391.97,108.11,388.19,110.68,385.75,114.08z M371.76,194.44
	c6.3,0.68,11.05,5.25,11.05,10.64s-4.75,9.96-11.05,10.64l-2.62,0.28v14.07c-4.51,1.09-8.29,3.66-10.73,7.05
	c-2.44-3.4-6.23-5.96-10.73-7.05V216l-2.62-0.28c-6.3-0.68-11.05-5.25-11.05-10.64s4.75-9.96,11.05-10.64l2.62-0.28v-14.07
	c4.51-1.09,8.29-3.66,10.73-7.05c2.44,3.4,6.23,5.96,10.73,7.05v14.07L371.76,194.44z M396.48,221.1v14.07l2.62,0.28
	c5.97,0.65,10.54,4.79,11,9.81c-0.46,5.02-5.03,9.17-11,9.81l-2.62,0.28v14.07c-4.51,1.09-8.29,3.66-10.73,7.06
	c-2.44-3.4-6.22-5.97-10.73-7.06v-14.07l-2.63-0.28c-5.97-0.64-10.54-4.79-11-9.81c0.46-5.02,5.03-9.17,11-9.81l2.62-0.28V221.1
	c4.51-1.09,8.29-3.66,10.73-7.06C388.19,217.44,391.97,220.01,396.48,221.1z M331.06,358.52c-2.44-3.4-6.22-5.97-10.73-7.06v-14.07
	l-2.63-0.28c-6.3-0.68-11.05-5.25-11.05-10.64c0-5.38,4.75-9.96,11.05-10.64l2.63-0.28v-14.07c4.51-1.09,8.29-3.66,10.73-7.06
	c2.44,3.4,6.22,5.97,10.73,7.06v14.07l2.62,0.28c6.3,0.68,11.05,5.25,11.05,10.64c0,5.38-4.75,9.96-11.05,10.64l-2.62,0.28v14.07
	C337.29,352.55,333.5,355.12,331.06,358.52z M276.38,358.52c-2.44-3.4-6.22-5.97-10.73-7.06v-14.07l-2.63-0.28
	c-6.3-0.68-11.05-5.25-11.05-10.64c0-5.38,4.75-9.96,11.05-10.64l2.63-0.28v-14.07c4.51-1.09,8.29-3.66,10.73-7.06
	c2.44,3.4,6.22,5.97,10.73,7.06v14.07l2.62,0.28c6.3,0.68,11.05,5.25,11.05,10.64c0,5.38-4.75,9.96-11.05,10.64l-2.62,0.28v14.07
	C282.6,352.55,278.81,355.12,276.38,358.52z M221.69,358.52c-2.44-3.4-6.22-5.97-10.73-7.06v-14.07l-2.63-0.28
	c-6.3-0.68-11.05-5.25-11.05-10.64c0-5.38,4.75-9.96,11.05-10.64l2.63-0.28v-14.07c4.51-1.09,8.29-3.66,10.73-7.06
	c2.44,3.4,6.22,5.97,10.73,7.06v14.07l2.62,0.28c6.3,0.68,11.05,5.25,11.05,10.64c0,5.38-4.75,9.96-11.05,10.64l-2.62,0.28v14.07
	C227.91,352.55,224.13,355.12,221.69,358.52z M167,358.52c-2.44-3.4-6.22-5.97-10.73-7.06v-14.07l-2.63-0.28
	c-6.3-0.68-11.05-5.25-11.05-10.64c0-5.38,4.75-9.96,11.05-10.64l2.63-0.28v-14.07c4.51-1.09,8.29-3.66,10.73-7.06
	c2.44,3.4,6.22,5.97,10.73,7.06v14.07l2.62,0.28c6.3,0.68,11.05,5.25,11.05,10.64c0,5.38-4.75,9.96-11.05,10.64l-2.62,0.28v14.07
	C173.23,352.55,169.44,355.12,167,358.52z M112.32,358.52c-2.44-3.4-6.22-5.97-10.73-7.06v-14.07l-2.63-0.28
	c-6.3-0.68-11.05-5.25-11.05-10.64c0-5.38,4.75-9.96,11.05-10.64l2.63-0.28v-14.07c4.51-1.09,8.29-3.66,10.73-7.06
	c2.44,3.4,6.22,5.97,10.73,7.06v14.07l2.62,0.28c6.3,0.68,11.05,5.25,11.05,10.64c0,5.38-4.75,9.96-11.05,10.64l-2.62,0.28v14.07
	C118.54,352.55,114.75,355.12,112.32,358.52z M71.61,296.09c-6.3-0.68-11.05-5.25-11.05-10.64c0-5.38,4.75-9.96,11.05-10.64
	l2.63-0.28v-14.07c4.51-1.09,8.29-3.66,10.73-7.05c2.44,3.4,6.23,5.96,10.73,7.05v14.07l2.62,0.28c6.3,0.68,11.05,5.25,11.05,10.64
	c0,5.38-4.75,9.96-11.05,10.64l-2.62,0.28v14.07c-4.51,1.09-8.29,3.66-10.73,7.05c-2.44-3.4-6.23-5.96-10.73-7.05v-14.07
	L71.61,296.09z M46.9,269.43v-14.07l-2.63-0.28c-5.97-0.64-10.54-4.79-11-9.81c0.46-5.02,5.03-9.17,11-9.81l2.62-0.28V221.1
	c4.51-1.09,8.29-3.66,10.73-7.06c2.44,3.4,6.22,5.97,10.73,7.06v14.07l2.62,0.28c5.97,0.65,10.54,4.79,11,9.81
	c-0.46,5.02-5.03,9.17-11,9.81l-2.62,0.28v14.07c-4.51,1.09-8.29,3.66-10.73,7.06C55.19,273.09,51.4,270.52,46.9,269.43z
	 M71.62,133.68c-6.3-0.68-11.05-5.25-11.05-10.64c0-5.38,4.75-9.96,11.05-10.64l2.63-0.28V98.06c4.51-1.09,8.29-3.66,10.73-7.05
	c2.44,3.4,6.23,5.96,10.73,7.05v14.07l2.62,0.28c6.3,0.68,11.05,5.25,11.05,10.64s-4.75,9.96-11.05,10.64l-2.62,0.28v14.07
	c-4.51,1.09-8.29,3.66-10.73,7.05c-2.44-3.4-6.23-5.96-10.73-7.05v-14.07L71.62,133.68z M112.32,49.98
	c2.44,3.4,6.22,5.97,10.73,7.06v14.07l2.62,0.28c6.3,0.68,11.05,5.25,11.05,10.64c0,5.38-4.75,9.96-11.05,10.64l-2.62,0.28v14.07
	c-4.51,1.09-8.29,3.66-10.73,7.06c-2.44-3.4-6.22-5.97-10.73-7.06V92.95l-2.62-0.28c-6.3-0.68-11.05-5.25-11.05-10.64
	c0-5.38,4.75-9.96,11.05-10.64l2.63-0.28V57.04C106.09,55.95,109.88,53.38,112.32,49.98z M167,49.98c2.44,3.4,6.22,5.97,10.73,7.06
	v14.07l2.62,0.28c6.3,0.68,11.05,5.25,11.05,10.64c0,5.38-4.75,9.96-11.05,10.64l-2.62,0.28v14.07c-4.51,1.09-8.29,3.66-10.73,7.06
	c-2.44-3.4-6.22-5.97-10.73-7.06V92.95l-2.62-0.28c-6.3-0.68-11.05-5.25-11.05-10.64c0-5.38,4.75-9.96,11.05-10.64l2.63-0.28V57.04
	C160.78,55.95,164.56,53.38,167,49.98z M221.69,49.98c2.44,3.4,6.22,5.97,10.73,7.06v14.07l2.62,0.28
	c6.3,0.68,11.05,5.25,11.05,10.64c0,5.38-4.75,9.96-11.05,10.64l-2.62,0.28v14.07c-4.51,1.09-8.29,3.66-10.73,7.06
	c-2.44-3.4-6.22-5.97-10.73-7.06V92.95l-2.62-0.28c-6.3-0.68-11.05-5.25-11.05-10.64c0-5.38,4.75-9.96,11.05-10.64l2.63-0.28V57.04
	C215.47,55.95,219.25,53.38,221.69,49.98z M276.38,49.98c2.44,3.4,6.22,5.97,10.73,7.06v14.07l2.62,0.28
	c6.3,0.68,11.05,5.25,11.05,10.64c0,5.38-4.75,9.96-11.05,10.64l-2.62,0.28v14.07c-4.51,1.09-8.29,3.66-10.73,7.06
	c-2.44-3.4-6.22-5.97-10.73-7.06V92.95l-2.62-0.28c-6.3-0.68-11.05-5.25-11.05-10.64c0-5.38,4.75-9.96,11.05-10.64l2.63-0.28V57.04
	C270.15,55.95,273.94,53.38,276.38,49.98z M331.06,49.98c2.44,3.4,6.22,5.97,10.73,7.06v14.07l2.62,0.28
	c6.3,0.68,11.05,5.25,11.05,10.64c0,5.38-4.75,9.96-11.05,10.64l-2.62,0.28v14.07c-4.51,1.09-8.29,3.66-10.73,7.06
	c-2.44-3.4-6.22-5.97-10.73-7.06V92.95l-2.62-0.28c-6.3-0.68-11.05-5.25-11.05-10.64c0-5.38,4.75-9.96,11.05-10.64l2.63-0.28V57.04
	C324.84,55.95,328.63,53.38,331.06,49.98z M317.08,194.44c6.3,0.68,11.05,5.25,11.05,10.64s-4.75,9.96-11.05,10.64l-2.62,0.28v14.07
	c-4.51,1.09-8.29,3.66-10.73,7.05c-2.44-3.4-6.23-5.96-10.73-7.05V216l-2.62-0.28c-6.3-0.68-11.05-5.25-11.05-10.64
	s4.75-9.96,11.05-10.64l2.62-0.28v-14.07c4.51-1.09,8.29-3.66,10.73-7.05c2.44,3.4,6.23,5.96,10.73,7.05v14.07L317.08,194.44z
	 M341.79,221.1v14.07l2.62,0.28c5.97,0.65,10.54,4.79,11,9.81c-0.46,5.02-5.03,9.17-11,9.81l-2.62,0.28v14.07
	c-4.51,1.09-8.29,3.66-10.73,7.06c-2.44-3.4-6.22-5.97-10.73-7.06v-14.07l-2.63-0.28c-5.97-0.64-10.54-4.79-11-9.81
	c0.46-5.02,5.03-9.17,11-9.81l2.62-0.28V221.1c4.51-1.09,8.29-3.66,10.73-7.06C333.5,217.44,337.29,220.01,341.79,221.1z
	 M290.36,296.09c-6.3-0.68-11.05-5.25-11.05-10.64c0-5.38,4.75-9.96,11.05-10.64l2.63-0.28v-14.07c4.51-1.09,8.29-3.66,10.73-7.05
	c2.44,3.4,6.23,5.96,10.73,7.05v14.07l2.62,0.28c6.3,0.68,11.05,5.25,11.05,10.64c0,5.38-4.75,9.96-11.05,10.64l-2.62,0.28v14.07
	c-4.51,1.09-8.29,3.66-10.73,7.05c-2.44-3.4-6.23-5.96-10.73-7.05v-14.07L290.36,296.09z M235.68,296.09
	c-6.3-0.68-11.05-5.25-11.05-10.64c0-5.38,4.75-9.96,11.05-10.64l2.63-0.28v-14.07c4.51-1.09,8.29-3.66,10.73-7.05
	c2.44,3.4,6.23,5.96,10.73,7.05v14.07l2.62,0.28c6.3,0.68,11.05,5.25,11.05,10.64c0,5.38-4.75,9.96-11.05,10.64l-2.62,0.28v14.07
	c-4.51,1.09-8.29,3.66-10.73,7.05c-2.44-3.4-6.23-5.96-10.73-7.05v-14.07L235.68,296.09z M180.99,296.09
	c-6.3-0.68-11.05-5.25-11.05-10.64c0-5.38,4.75-9.96,11.05-10.64l2.63-0.28v-14.07c4.51-1.09,8.29-3.66,10.73-7.05
	c2.44,3.4,6.23,5.96,10.73,7.05v14.07l2.62,0.28c6.3,0.68,11.05,5.25,11.05,10.64c0,5.38-4.75,9.96-11.05,10.64l-2.62,0.28v14.07
	c-4.51,1.09-8.29,3.66-10.73,7.05c-2.44-3.4-6.23-5.96-10.73-7.05v-14.07L180.99,296.09z M126.3,296.09
	c-6.3-0.68-11.05-5.25-11.05-10.64c0-5.38,4.75-9.96,11.05-10.64l2.63-0.28v-14.07c4.51-1.09,8.29-3.66,10.73-7.05
	c2.44,3.4,6.23,5.96,10.73,7.05v14.07l2.62,0.28c6.3,0.68,11.05,5.25,11.05,10.64c0,5.38-4.75,9.96-11.05,10.64l-2.62,0.28v14.07
	c-4.51,1.09-8.29,3.66-10.73,7.05c-2.44-3.4-6.23-5.96-10.73-7.05v-14.07L126.3,296.09z M101.58,269.43v-14.07l-2.63-0.28
	c-5.97-0.64-10.54-4.79-11-9.81c0.46-5.02,5.03-9.17,11-9.81l2.62-0.28V221.1c4.51-1.09,8.29-3.66,10.73-7.06
	c2.44,3.4,6.22,5.97,10.73,7.06v14.07l2.62,0.28c5.97,0.65,10.54,4.79,11,9.81c-0.46,5.02-5.03,9.17-11,9.81l-2.62,0.28v14.07
	c-4.51,1.09-8.29,3.66-10.73,7.06C109.88,273.09,106.09,270.52,101.58,269.43z M126.3,133.68c-6.3-0.68-11.05-5.25-11.05-10.64
	c0-5.38,4.75-9.96,11.05-10.64l2.63-0.28V98.06c4.51-1.09,8.29-3.66,10.73-7.05c2.44,3.4,6.23,5.96,10.73,7.05v14.07l2.62,0.28
	c6.3,0.68,11.05,5.25,11.05,10.64s-4.75,9.96-11.05,10.64l-2.62,0.28v14.07c-4.51,1.09-8.29,3.66-10.73,7.05
	c-2.44-3.4-6.23-5.96-10.73-7.05v-14.07L126.3,133.68z M153.65,153.42l2.62-0.28v-14.07c4.51-1.09,8.29-3.66,10.73-7.06
	c2.44,3.4,6.22,5.97,10.73,7.06v14.07l2.62,0.28c6.3,0.68,11.05,5.25,11.05,10.64c0,5.38-4.75,9.96-11.05,10.64l-2.62,0.28v14.07
	c-4.51,1.09-8.29,3.66-10.73,7.06c-2.44-3.4-6.22-5.97-10.73-7.06v-14.07l-2.62-0.28c-6.3-0.68-11.05-5.25-11.05-10.64
	C142.6,158.68,147.35,154.1,153.65,153.42z M207.7,112.41c6.3,0.68,11.05,5.25,11.05,10.64S214,133,207.7,133.68l-2.62,0.28v14.07
	c-4.51,1.09-8.29,3.66-10.73,7.05c-2.44-3.4-6.23-5.96-10.73-7.05v-14.07l-2.62-0.28c-6.3-0.68-11.05-5.25-11.05-10.64
	c0-5.38,4.75-9.96,11.05-10.64l2.63-0.28V98.06c4.51-1.09,8.29-3.66,10.73-7.05c2.44,3.4,6.23,5.96,10.73,7.05v14.07L207.7,112.41z
	 M262.39,112.41c6.3,0.68,11.05,5.25,11.05,10.64s-4.75,9.96-11.05,10.64l-2.62,0.28v14.07c-4.51,1.09-8.29,3.66-10.73,7.05
	c-2.44-3.4-6.23-5.96-10.73-7.05v-14.07l-2.62-0.28c-6.3-0.68-11.05-5.25-11.05-10.64c0-5.38,4.75-9.96,11.05-10.64l2.63-0.28V98.06
	c4.51-1.09,8.29-3.66,10.73-7.05c2.44,3.4,6.23,5.96,10.73,7.05v14.07L262.39,112.41z M262.39,194.44
	c6.3,0.68,11.05,5.25,11.05,10.64s-4.75,9.96-11.05,10.64l-2.62,0.28v14.07c-4.51,1.09-8.29,3.66-10.73,7.05
	c-2.44-3.4-6.23-5.96-10.73-7.05V216l-2.62-0.28c-6.3-0.68-11.05-5.25-11.05-10.64s4.75-9.96,11.05-10.64l2.62-0.28v-14.07
	c4.51-1.09,8.29-3.66,10.73-7.05c2.44,3.4,6.23,5.96,10.73,7.05v14.07L262.39,194.44z M232.42,139.07v14.07l2.62,0.28
	c6.3,0.68,11.05,5.25,11.05,10.64c0,5.38-4.75,9.96-11.05,10.64l-2.62,0.28v14.07c-4.51,1.09-8.29,3.66-10.73,7.06
	c-2.44-3.4-6.22-5.97-10.73-7.06v-14.07l-2.62-0.28c-6.3-0.68-11.05-5.25-11.05-10.64c0-5.38,4.75-9.96,11.05-10.64l2.62-0.28
	v-14.07c4.51-1.09,8.29-3.66,10.73-7.06C224.13,135.41,227.91,137.98,232.42,139.07z M194.35,237.12c-2.44-3.4-6.23-5.96-10.73-7.05
	V216l-2.62-0.28c-6.3-0.68-11.05-5.25-11.05-10.64s4.75-9.96,11.05-10.64l2.62-0.28v-14.07c4.51-1.09,8.29-3.66,10.73-7.05
	c2.44,3.4,6.23,5.96,10.73,7.05v14.07l2.62,0.28c6.3,0.68,11.05,5.25,11.05,10.64s-4.75,9.96-11.05,10.64l-2.62,0.28v14.07
	C200.57,231.16,196.78,233.72,194.35,237.12z M139.66,173.03c2.44,3.4,6.23,5.96,10.73,7.05v14.07l2.62,0.28
	c6.3,0.68,11.05,5.25,11.05,10.64s-4.75,9.96-11.05,10.64l-2.62,0.28v14.07c-4.51,1.09-8.29,3.66-10.73,7.05
	c-2.44-3.4-6.23-5.96-10.73-7.05V216l-2.62-0.28c-6.3-0.68-11.05-5.25-11.05-10.64s4.75-9.96,11.05-10.64l2.62-0.28v-14.07
	C133.43,178.99,137.22,176.43,139.66,173.03z M156.27,269.43v-14.07l-2.63-0.28c-5.97-0.64-10.54-4.79-11-9.81
	c0.46-5.02,5.03-9.17,11-9.81l2.62-0.28V221.1c4.51-1.09,8.29-3.66,10.73-7.06c2.44,3.4,6.22,5.97,10.73,7.06v14.07l2.62,0.28
	c5.97,0.65,10.54,4.79,11,9.81c-0.46,5.02-5.03,9.17-11,9.81l-2.62,0.28v14.07c-4.51,1.09-8.29,3.66-10.73,7.06
	C164.56,273.09,160.78,270.52,156.27,269.43z M210.96,269.43v-14.07l-2.63-0.28c-5.97-0.64-10.54-4.79-11-9.81
	c0.46-5.02,5.03-9.17,11-9.81l2.62-0.28V221.1c4.51-1.09,8.29-3.66,10.73-7.06c2.44,3.4,6.22,5.97,10.73,7.06v14.07l2.62,0.28
	c5.97,0.65,10.54,4.79,11,9.81c-0.46,5.02-5.03,9.17-11,9.81l-2.62,0.28v14.07c-4.51,1.09-8.29,3.66-10.73,7.06
	C219.25,273.09,215.47,270.52,210.96,269.43z M265.64,269.43v-14.07l-2.63-0.28c-5.97-0.64-10.54-4.79-11-9.81
	c0.46-5.02,5.03-9.17,11-9.81l2.62-0.28V221.1c4.51-1.09,8.29-3.66,10.73-7.06c2.44,3.4,6.22,5.97,10.73,7.06v14.07l2.62,0.28
	c5.97,0.65,10.54,4.79,11,9.81c-0.46,5.02-5.03,9.17-11,9.81l-2.62,0.28v14.07c-4.51,1.09-8.29,3.66-10.73,7.06
	C273.94,273.09,270.15,270.52,265.64,269.43z M289.73,174.7l-2.62,0.28v14.07c-4.51,1.09-8.29,3.66-10.73,7.06
	c-2.44-3.4-6.22-5.97-10.73-7.06v-14.07l-2.62-0.28c-6.3-0.68-11.05-5.25-11.05-10.64c0-5.38,4.75-9.96,11.05-10.64l2.62-0.28
	v-14.07c4.51-1.09,8.29-3.66,10.73-7.06c2.44,3.4,6.22,5.97,10.73,7.06v14.07l2.62,0.28c6.3,0.68,11.05,5.25,11.05,10.64
	C300.78,169.44,296.03,174.02,289.73,174.7z M303.72,155.09c-2.44-3.4-6.23-5.96-10.73-7.05v-14.07l-2.62-0.28
	c-6.3-0.68-11.05-5.25-11.05-10.64c0-5.38,4.75-9.96,11.05-10.64l2.63-0.28V98.06c4.51-1.09,8.29-3.66,10.73-7.05
	c2.44,3.4,6.23,5.96,10.73,7.05v14.07l2.62,0.28c6.3,0.68,11.05,5.25,11.05,10.64s-4.75,9.96-11.05,10.64l-2.62,0.28v14.07
	C309.95,149.13,306.16,151.69,303.72,155.09z M98.96,153.42l2.62-0.28v-14.07c4.51-1.09,8.29-3.66,10.73-7.06
	c2.44,3.4,6.22,5.97,10.73,7.06v14.07l2.62,0.28c6.3,0.68,11.05,5.25,11.05,10.64c0,5.38-4.75,9.96-11.05,10.64l-2.62,0.28v14.07
	c-4.51,1.09-8.29,3.66-10.73,7.06c-2.44-3.4-6.22-5.97-10.73-7.06v-14.07l-2.62-0.28c-6.3-0.68-11.05-5.25-11.05-10.64
	C87.91,158.68,92.66,154.1,98.96,153.42z M84.97,173.03c2.44,3.4,6.23,5.96,10.73,7.05v14.07l2.62,0.28
	c6.3,0.68,11.05,5.25,11.05,10.64s-4.75,9.96-11.05,10.64L95.7,216v14.07c-4.51,1.09-8.29,3.66-10.73,7.05
	c-2.44-3.4-6.23-5.96-10.73-7.05V216l-2.62-0.28c-6.3-0.68-11.05-5.25-11.05-10.64s4.75-9.96,11.05-10.64l2.62-0.28v-14.07
	C78.75,178.99,82.53,176.43,84.97,173.03z M358.41,317.5c-2.44-3.4-6.23-5.96-10.73-7.05v-14.07l-2.63-0.28
	c-6.3-0.68-11.05-5.25-11.05-10.64c0-5.38,4.75-9.96,11.05-10.64l2.63-0.28v-14.07c4.51-1.09,8.29-3.66,10.73-7.05
	c2.44,3.4,6.23,5.96,10.73,7.05v14.07l2.62,0.28c6.3,0.68,11.05,5.25,11.05,10.64c0,5.38-4.75,9.96-11.05,10.64l-2.62,0.28v14.07
	C364.63,311.54,360.84,314.1,358.41,317.5z M344.42,174.7l-2.62,0.28v14.07c-4.51,1.09-8.29,3.66-10.73,7.06
	c-2.44-3.4-6.22-5.97-10.73-7.06v-14.07l-2.62-0.28c-6.3-0.68-11.05-5.25-11.05-10.64c0-5.38,4.75-9.96,11.05-10.64l2.62-0.28
	v-14.07c4.51-1.09,8.29-3.66,10.73-7.06c2.44,3.4,6.22,5.97,10.73,7.06v14.07l2.62,0.28c6.3,0.68,11.05,5.25,11.05,10.64
	C355.47,169.44,350.72,174.02,344.42,174.7z M358.41,155.09c-2.44-3.4-6.23-5.96-10.73-7.05v-14.07l-2.62-0.28
	c-6.3-0.68-11.05-5.25-11.05-10.64c0-5.38,4.75-9.96,11.05-10.64l2.63-0.28V98.06c4.51-1.09,8.29-3.66,10.73-7.05
	c2.44,3.4,6.23,5.96,10.73,7.05v14.07l2.62,0.28c6.3,0.68,11.05,5.25,11.05,10.64s-4.75,9.96-11.05,10.64l-2.62,0.28v14.07
	C364.63,149.13,360.84,151.69,358.41,155.09z M399.74,30.38l2.63-0.28V16.03c4.51-1.09,8.29-3.66,10.73-7.05
	c2.44,3.4,6.23,5.96,10.73,7.05V30.1l2.62,0.28c6.3,0.68,11.05,5.25,11.05,10.64s-4.75,9.96-11.05,10.64l-2.62,0.28V66
	c-4.51,1.09-8.29,3.66-10.73,7.05c-2.44-3.4-6.23-5.96-10.73-7.05V51.93l-2.63-0.28c-6.3-0.68-11.05-5.25-11.05-10.64
	C388.69,35.63,393.44,31.06,399.74,30.38z M345.05,30.38l2.63-0.28V16.03c4.51-1.09,8.29-3.66,10.73-7.05
	c2.44,3.4,6.23,5.96,10.73,7.05V30.1l2.62,0.28c6.3,0.68,11.05,5.25,11.05,10.64s-4.75,9.96-11.05,10.64l-2.62,0.28V66
	c-4.51,1.09-8.29,3.66-10.73,7.05c-2.44-3.4-6.23-5.96-10.73-7.05V51.93l-2.63-0.28C338.75,50.97,334,46.4,334,41.02
	C334,35.63,338.75,31.06,345.05,30.38z M290.36,30.38l2.63-0.28V16.03c4.51-1.09,8.29-3.66,10.73-7.05
	c2.44,3.4,6.23,5.96,10.73,7.05V30.1l2.62,0.28c6.3,0.68,11.05,5.25,11.05,10.64s-4.75,9.96-11.05,10.64l-2.62,0.28V66
	c-4.51,1.09-8.29,3.66-10.73,7.05c-2.44-3.4-6.23-5.96-10.73-7.05V51.93l-2.63-0.28c-6.3-0.68-11.05-5.25-11.05-10.64
	C279.32,35.63,284.07,31.06,290.36,30.38z M235.68,30.38l2.63-0.28V16.03c4.51-1.09,8.29-3.66,10.73-7.05
	c2.44,3.4,6.23,5.96,10.73,7.05V30.1l2.62,0.28c6.3,0.68,11.05,5.25,11.05,10.64s-4.75,9.96-11.05,10.64l-2.62,0.28V66
	c-4.51,1.09-8.29,3.66-10.73,7.05c-2.44-3.4-6.23-5.96-10.73-7.05V51.93l-2.63-0.28c-6.3-0.68-11.05-5.25-11.05-10.64
	C224.63,35.63,229.38,31.06,235.68,30.38z M180.99,30.38l2.63-0.28V16.03c4.51-1.09,8.29-3.66,10.73-7.05
	c2.44,3.4,6.23,5.96,10.73,7.05V30.1l2.62,0.28c6.3,0.68,11.05,5.25,11.05,10.64S214,50.97,207.7,51.65l-2.62,0.28V66
	c-4.51,1.09-8.29,3.66-10.73,7.05c-2.44-3.4-6.23-5.96-10.73-7.05V51.93l-2.63-0.28c-6.3-0.68-11.05-5.25-11.05-10.64
	C169.94,35.63,174.69,31.06,180.99,30.38z M126.3,30.38l2.63-0.28V16.03c4.51-1.09,8.29-3.66,10.73-7.05
	c2.44,3.4,6.23,5.96,10.73,7.05V30.1l2.62,0.28c6.3,0.68,11.05,5.25,11.05,10.64s-4.75,9.96-11.05,10.64l-2.62,0.28V66
	c-4.51,1.09-8.29,3.66-10.73,7.05c-2.44-3.4-6.23-5.96-10.73-7.05V51.93l-2.63-0.28c-6.3-0.68-11.05-5.25-11.05-10.64
	C115.26,35.63,120,31.06,126.3,30.38z M71.61,30.38l2.63-0.28V16.03c4.51-1.09,8.29-3.66,10.73-7.05c2.44,3.4,6.23,5.96,10.73,7.05
	V30.1l2.62,0.28c6.3,0.68,11.05,5.25,11.05,10.64s-4.75,9.96-11.05,10.64l-2.62,0.28V66c-4.51,1.09-8.29,3.66-10.73,7.05
	c-2.44-3.4-6.23-5.96-10.73-7.05V51.93l-2.63-0.28c-6.3-0.68-11.05-5.25-11.05-10.64C60.57,35.63,65.32,31.06,71.61,30.38z
	 M19.55,66V51.93l-2.63-0.28c-6.3-0.68-11.05-5.25-11.05-10.64s4.75-9.96,11.05-10.64l2.63-0.28V16.03
	c4.51-1.09,8.29-3.66,10.73-7.05c2.44,3.4,6.23,5.96,10.73,7.05V30.1l2.62,0.28c6.3,0.68,11.05,5.25,11.05,10.64
	s-4.75,9.96-11.05,10.64l-2.62,0.28V66c-4.51,1.09-8.29,3.66-10.73,7.05C27.85,69.66,24.06,67.1,19.55,66z M44.27,71.39l2.63-0.28
	V57.04c4.51-1.09,8.29-3.66,10.73-7.06c2.44,3.4,6.22,5.97,10.73,7.06v14.07l2.62,0.28c6.3,0.68,11.05,5.25,11.05,10.64
	c0,5.38-4.75,9.96-11.05,10.64l-2.62,0.28v14.07c-4.51,1.09-8.29,3.66-10.73,7.06c-2.44-3.4-6.22-5.97-10.73-7.06V92.95l-2.62-0.28
	c-6.3-0.68-11.05-5.25-11.05-10.64C33.23,76.65,37.97,72.07,44.27,71.39z M19.55,148.03v-14.07l-2.62-0.28
	c-6.3-0.68-11.05-5.25-11.05-10.64s4.75-9.96,11.05-10.64l2.63-0.28V98.06c4.51-1.09,8.29-3.66,10.73-7.05
	c2.44,3.4,6.23,5.96,10.73,7.05v14.07l2.62,0.28c6.3,0.68,11.05,5.25,11.05,10.64s-4.75,9.96-11.05,10.64l-2.62,0.28v14.07
	c-4.51,1.09-8.29,3.66-10.73,7.05C27.85,151.69,24.06,149.13,19.55,148.03z M44.27,153.42l2.62-0.28v-14.07
	c4.51-1.09,8.29-3.66,10.73-7.06c2.44,3.4,6.22,5.97,10.73,7.06v14.07l2.62,0.28c6.3,0.68,11.05,5.25,11.05,10.64
	c0,5.38-4.75,9.96-11.05,10.64l-2.62,0.28v14.07c-4.51,1.09-8.29,3.66-10.73,7.06c-2.44-3.4-6.22-5.97-10.73-7.06v-14.07l-2.62-0.28
	c-6.3-0.68-11.05-5.25-11.05-10.64C33.23,158.68,37.97,154.1,44.27,153.42z M19.55,230.06V216l-2.62-0.28
	c-6.3-0.68-11.05-5.25-11.05-10.64s4.75-9.96,11.05-10.64l2.62-0.28v-14.07c4.51-1.09,8.29-3.66,10.73-7.05
	c2.44,3.4,6.23,5.96,10.73,7.05v14.07l2.62,0.28c6.3,0.68,11.05,5.25,11.05,10.64s-4.75,9.96-11.05,10.64L41.02,216v14.07
	c-4.51,1.09-8.29,3.66-10.73,7.05C27.85,233.72,24.06,231.16,19.55,230.06z M19.55,310.44v-14.07l-2.63-0.28
	c-6.3-0.68-11.05-5.25-11.05-10.64c0-5.38,4.75-9.96,11.05-10.64l2.63-0.28v-14.07c4.51-1.09,8.29-3.66,10.73-7.05
	c2.44,3.4,6.23,5.96,10.73,7.05v14.07l2.62,0.28c6.3,0.68,11.05,5.25,11.05,10.64c0,5.38-4.75,9.96-11.05,10.64l-2.62,0.28v14.07
	c-4.51,1.09-8.29,3.66-10.73,7.05C27.85,314.1,24.06,311.54,19.55,310.44z M44.27,315.83l2.63-0.28v-14.07
	c4.51-1.09,8.29-3.66,10.73-7.06c2.44,3.4,6.22,5.97,10.73,7.06v14.07l2.62,0.28c6.3,0.68,11.05,5.25,11.05,10.64
	c0,5.38-4.75,9.96-11.05,10.64l-2.62,0.28v14.07c-4.51,1.09-8.29,3.66-10.73,7.06c-2.44-3.4-6.22-5.97-10.73-7.06v-14.07l-2.63-0.28
	c-6.3-0.68-11.05-5.25-11.05-10.64C33.23,321.09,37.97,316.51,44.27,315.83z M43.64,378.12l-2.62,0.28v14.07
	c-4.51,1.09-8.29,3.66-10.73,7.05c-2.44-3.4-6.23-5.96-10.73-7.05V378.4l-2.63-0.28c-6.3-0.68-11.05-5.25-11.05-10.64
	c0-5.38,4.75-9.96,11.05-10.64l2.63-0.28V342.5c4.51-1.09,8.29-3.66,10.73-7.05c2.44,3.4,6.23,5.96,10.73,7.05v14.07l2.62,0.28
	c6.3,0.68,11.05,5.25,11.05,10.64C54.69,372.87,49.94,377.44,43.64,378.12z M98.33,378.12l-2.62,0.28v14.07
	c-4.51,1.09-8.29,3.66-10.73,7.05c-2.44-3.4-6.23-5.96-10.73-7.05V378.4l-2.63-0.28c-6.3-0.68-11.05-5.25-11.05-10.64
	c0-5.38,4.75-9.96,11.05-10.64l2.63-0.28V342.5c4.51-1.09,8.29-3.66,10.73-7.05c2.44,3.4,6.23,5.96,10.73,7.05v14.07l2.62,0.28
	c6.3,0.68,11.05,5.25,11.05,10.64C109.37,372.87,104.63,377.44,98.33,378.12z M153.01,378.12l-2.62,0.28v14.07
	c-4.51,1.09-8.29,3.66-10.73,7.05c-2.44-3.4-6.23-5.96-10.73-7.05V378.4l-2.63-0.28c-6.3-0.68-11.05-5.25-11.05-10.64
	c0-5.38,4.75-9.96,11.05-10.64l2.63-0.28V342.5c4.51-1.09,8.29-3.66,10.73-7.05c2.44,3.4,6.23,5.96,10.73,7.05v14.07l2.62,0.28
	c6.3,0.68,11.05,5.25,11.05,10.64C164.06,372.87,159.31,377.44,153.01,378.12z M207.7,378.12l-2.62,0.28v14.07
	c-4.51,1.09-8.29,3.66-10.73,7.05c-2.44-3.4-6.23-5.96-10.73-7.05V378.4l-2.63-0.28c-6.3-0.68-11.05-5.25-11.05-10.64
	c0-5.38,4.75-9.96,11.05-10.64l2.63-0.28V342.5c4.51-1.09,8.29-3.66,10.73-7.05c2.44,3.4,6.23,5.96,10.73,7.05v14.07l2.62,0.28
	c6.3,0.68,11.05,5.25,11.05,10.64C218.75,372.87,214,377.44,207.7,378.12z M262.39,378.12l-2.62,0.28v14.07
	c-4.51,1.09-8.29,3.66-10.73,7.05c-2.44-3.4-6.23-5.96-10.73-7.05V378.4l-2.63-0.28c-6.3-0.68-11.05-5.25-11.05-10.64
	c0-5.38,4.75-9.96,11.05-10.64l2.63-0.28V342.5c4.51-1.09,8.29-3.66,10.73-7.05c2.44,3.4,6.23,5.96,10.73,7.05v14.07l2.62,0.28
	c6.3,0.68,11.05,5.25,11.05,10.64C273.44,372.87,268.69,377.44,262.39,378.12z M317.08,378.12l-2.62,0.28v14.07
	c-4.51,1.09-8.29,3.66-10.73,7.05c-2.44-3.4-6.23-5.96-10.73-7.05V378.4l-2.63-0.28c-6.3-0.68-11.05-5.25-11.05-10.64
	c0-5.38,4.75-9.96,11.05-10.64l2.63-0.28V342.5c4.51-1.09,8.29-3.66,10.73-7.05c2.44,3.4,6.23,5.96,10.73,7.05v14.07l2.62,0.28
	c6.3,0.68,11.05,5.25,11.05,10.64C328.12,372.87,323.37,377.44,317.08,378.12z M371.76,378.12l-2.62,0.28v14.07
	c-4.51,1.09-8.29,3.66-10.73,7.05c-2.44-3.4-6.23-5.96-10.73-7.05V378.4l-2.63-0.28c-6.3-0.68-11.05-5.25-11.05-10.64
	c0-5.38,4.75-9.96,11.05-10.64l2.63-0.28V342.5c4.51-1.09,8.29-3.66,10.73-7.05c2.44,3.4,6.23,5.96,10.73,7.05v14.07l2.62,0.28
	c6.3,0.68,11.05,5.25,11.05,10.64C382.81,372.87,378.06,377.44,371.76,378.12z M423.82,342.5v14.07l2.62,0.28
	c6.3,0.68,11.05,5.25,11.05,10.64c0,5.38-4.75,9.96-11.05,10.64l-2.62,0.28v14.07c-4.51,1.09-8.29,3.66-10.73,7.05
	c-2.44-3.4-6.23-5.96-10.73-7.05V378.4l-2.63-0.28c-6.3-0.68-11.05-5.25-11.05-10.64c0-5.38,4.75-9.96,11.05-10.64l2.63-0.28V342.5
	c4.51-1.09,8.29-3.66,10.73-7.05C415.53,338.84,419.32,341.4,423.82,342.5z M399.11,337.11l-2.62,0.28v14.07
	c-4.51,1.09-8.29,3.66-10.73,7.06c-2.44-3.4-6.22-5.97-10.73-7.06v-14.07l-2.63-0.28c-6.3-0.68-11.05-5.25-11.05-10.64
	c0-5.38,4.75-9.96,11.05-10.64l2.63-0.28v-14.07c4.51-1.09,8.29-3.66,10.73-7.06c2.44,3.4,6.22,5.97,10.73,7.06v14.07l2.62,0.28
	c6.3,0.68,11.05,5.25,11.05,10.64C410.15,331.85,405.4,336.43,399.11,337.11z M423.82,260.47v14.07l2.62,0.28
	c6.3,0.68,11.05,5.25,11.05,10.64c0,5.38-4.75,9.96-11.05,10.64l-2.62,0.28v14.07c-4.51,1.09-8.29,3.66-10.73,7.05
	c-2.44-3.4-6.23-5.96-10.73-7.05v-14.07l-2.63-0.28c-6.3-0.68-11.05-5.25-11.05-10.64c0-5.38,4.75-9.96,11.05-10.64l2.63-0.28
	v-14.07c4.51-1.09,8.29-3.66,10.73-7.05C415.53,256.81,419.32,259.37,423.82,260.47z M423.82,180.09v14.07l2.62,0.28
	c6.3,0.68,11.05,5.25,11.05,10.64s-4.75,9.96-11.05,10.64l-2.62,0.28v14.07c-4.51,1.09-8.29,3.66-10.73,7.05
	c-2.44-3.4-6.23-5.96-10.73-7.05V216l-2.62-0.28c-6.3-0.68-11.05-5.25-11.05-10.64s4.75-9.96,11.05-10.64l2.62-0.28v-14.07
	c4.51-1.09,8.29-3.66,10.73-7.05C415.53,176.43,419.32,178.99,423.82,180.09z M399.11,174.7l-2.62,0.28v14.07
	c-4.51,1.09-8.29,3.66-10.73,7.06c-2.44-3.4-6.22-5.97-10.73-7.06v-14.07l-2.62-0.28c-6.3-0.68-11.05-5.25-11.05-10.64
	c0-5.38,4.75-9.96,11.05-10.64l2.62-0.28v-14.07c4.51-1.09,8.29-3.66,10.73-7.06c2.44,3.4,6.22,5.97,10.73,7.06v14.07l2.62,0.28
	c6.3,0.68,11.05,5.25,11.05,10.64C410.15,169.44,405.4,174.02,399.11,174.7z M413.09,155.09c-2.44-3.4-6.23-5.96-10.73-7.05v-14.07
	l-2.62-0.28c-6.3-0.68-11.05-5.25-11.05-10.64c0-5.38,4.75-9.96,11.05-10.64l2.63-0.28V98.06c4.51-1.09,8.29-3.66,10.73-7.05
	c2.44,3.4,6.23,5.96,10.73,7.05v14.07l2.62,0.28c6.3,0.68,11.05,5.25,11.05,10.64s-4.75,9.96-11.05,10.64l-2.62,0.28v14.07
	C419.32,149.13,415.53,151.69,413.09,155.09z"/>
</svg>
